# MagicaVoxel @ Ephtracy

# group
o imp

# material
mtllib domo_body-0-imp.mtl
usemtl palette

# normals
vn -1 0 0
vn 1 0 0
vn 0 -1 0
vn 0 1 0
vn 0 0 -1
vn 0 0 1

# texcoords
vt 0.970703 0.5
vt 0.974609 0.5
vt 0.978516 0.5

# verts
v -1.2 1.4 0
v -1.2 2.2 0
v -1.2 1.4 0.1
v -1.2 2.2 0.1
v -1 1.3 -0.1
v -1 2.2 -0.1
v -1 1.4 0
v -1 2.2 0
v -1 1.4 0.1
v -1 2.2 0.1
v -1 1.3 0.2
v -1 2.2 0.2
v -0.8 2.2 -0.1
v -0.8 2.3 -0.1
v -0.8 2.2 0.2
v -0.8 2.3 0.2
v -0.7 0.9 -0.3
v -0.7 2.3 -0.3
v -0.7 1.3 -0.1
v -0.7 2.3 -0.1
v -0.7 0.9 0.2
v -0.7 1.3 0.2
v -0.6 0.7 -0.3
v -0.6 0.9 -0.3
v -0.6 0.7 0.2
v -0.6 0.9 0.2
v -0.5 0.6 -0.3
v -0.5 0.7 -0.3
v -0.5 0.6 0.2
v -0.5 0.7 0.2
v -0.4 0.5 -0.3
v -0.4 0.6 -0.3
v -0.4 0.5 0.2
v -0.4 0.6 0.2
v -0.3 2.3 -0.3
v -0.3 2.4 -0.3
v -0.3 2.3 0.2
v -0.3 2.4 0.2
v -0.2 2.4 -0.3
v -0.2 2.6 -0.3
v -0.2 2.4 0.2
v -0.2 2.6 0.2
v 0.4 1.6 0.1
v 0.4 1.8 0.1
v 0.4 1.6 0.2
v 0.4 1.8 0.2
v 0.5 2.2 -0.3
v 0.5 2.6 -0.3
v 0.5 2.2 0.2
v 0.5 2.6 0.2
v -0.0999999 2.4 -0.3
v -0.0999999 2.6 -0.3
v -0.0999999 1.6 0.1
v -0.0999999 1.8 0.1
v -0.0999999 1.6 0.2
v -0.0999999 1.8 0.2
v -0.0999999 2.4 0.2
v -0.0999999 2.6 0.2
v 1.19209e-07 2.3 -0.3
v 1.19209e-07 2.4 -0.3
v 1.19209e-07 2.3 0.2
v 1.19209e-07 2.4 0.2
v 0.1 2.2 -0.3
v 0.1 2.3 -0.3
v 0.1 2.2 0.2
v 0.1 2.3 0.2
v 0.7 0.5 -0.3
v 0.7 0.6 -0.3
v 0.7 2.5 -0.3
v 0.7 2.6 -0.3
v 0.7 0.5 0.2
v 0.7 0.6 0.2
v 0.7 2.5 0.2
v 0.7 2.6 0.2
v 0.8 0.6 -0.3
v 0.8 0.7 -0.3
v 0.8 2.3 -0.3
v 0.8 2.5 -0.3
v 0.8 0.6 0.2
v 0.8 0.7 0.2
v 0.8 2.3 0.2
v 0.8 2.5 0.2
v 0.9 0.7 -0.3
v 0.9 0.9 -0.3
v 0.9 0.7 0.2
v 0.9 0.9 0.2
v 1 0.9 -0.3
v 1 2.3 -0.3
v 1 1.3 -0.1
v 1 2.3 -0.1
v 1 0.9 0.2
v 1 1.3 0.2
v 1.1 1.3 -0.1
v 1.1 1.5 -0.1
v 1.1 1.5 0
v 1.1 2.3 0
v 1.1 1.3 0.2
v 1.1 2.3 0.2
v 1.3 1.5 -0.1
v 1.3 2.3 -0.1
v 1.3 1.5 0
v 1.3 2.3 0
v -0.4 0.5 -0.3
v -0.4 0.5 0.2
v 0.7 0.5 -0.3
v 0.7 0.5 0.2
v -0.5 0.6 -0.3
v -0.5 0.6 0.2
v -0.4 0.6 -0.3
v -0.4 0.6 0.2
v 0.7 0.6 -0.3
v 0.7 0.6 0.2
v 0.8 0.6 -0.3
v 0.8 0.6 0.2
v -0.6 0.7 -0.3
v -0.6 0.7 0.2
v -0.5 0.7 -0.3
v -0.5 0.7 0.2
v 0.8 0.7 -0.3
v 0.8 0.7 0.2
v 0.9 0.7 -0.3
v 0.9 0.7 0.2
v -0.7 0.9 -0.3
v -0.7 0.9 0.2
v -0.6 0.9 -0.3
v -0.6 0.9 0.2
v 0.9 0.9 -0.3
v 0.9 0.9 0.2
v 1 0.9 -0.3
v 1 0.9 0.2
v -1 1.3 -0.1
v -1 1.3 0.2
v -0.7 1.3 -0.1
v -0.7 1.3 0.2
v 1 1.3 -0.1
v 1 1.3 0.2
v 1.1 1.3 -0.1
v 1.1 1.3 0.2
v -1.2 1.4 0
v -1.2 1.4 0.1
v -1 1.4 0
v -1 1.4 0.1
v 1.1 1.5 -0.1
v 1.1 1.5 0
v 1.3 1.5 -0.1
v 1.3 1.5 0
v -0.0999999 1.8 0.1
v -0.0999999 1.8 0.2
v 0.4 1.8 0.1
v 0.4 1.8 0.2
v -0.0999999 1.6 0.1
v -0.0999999 1.6 0.2
v 0.4 1.6 0.1
v 0.4 1.6 0.2
v -1.2 2.2 0
v -1.2 2.2 0.1
v -1 2.2 -0.1
v -1 2.2 0
v -1 2.2 0.1
v -1 2.2 0.2
v -0.8 2.2 -0.1
v -0.8 2.2 0.2
v 0.1 2.2 -0.3
v 0.1 2.2 0.2
v 0.5 2.2 -0.3
v 0.5 2.2 0.2
v -0.8 2.3 -0.1
v -0.8 2.3 0.2
v -0.7 2.3 -0.3
v -0.7 2.3 -0.1
v -0.3 2.3 -0.3
v -0.3 2.3 0.2
v 1.19209e-07 2.3 -0.3
v 1.19209e-07 2.3 0.2
v 0.1 2.3 -0.3
v 0.1 2.3 0.2
v 0.8 2.3 -0.3
v 0.8 2.3 0.2
v 1 2.3 -0.3
v 1 2.3 -0.1
v 1.1 2.3 -0.1
v 1.1 2.3 0
v 1.1 2.3 0.2
v 1.3 2.3 -0.1
v 1.3 2.3 0
v -0.3 2.4 -0.3
v -0.3 2.4 0.2
v -0.2 2.4 -0.3
v -0.2 2.4 0.2
v -0.0999999 2.4 -0.3
v -0.0999999 2.4 0.2
v 1.19209e-07 2.4 -0.3
v 1.19209e-07 2.4 0.2
v 0.7 2.5 -0.3
v 0.7 2.5 0.2
v 0.8 2.5 -0.3
v 0.8 2.5 0.2
v -0.2 2.6 -0.3
v -0.2 2.6 0.2
v -0.0999999 2.6 -0.3
v -0.0999999 2.6 0.2
v 0.5 2.6 -0.3
v 0.5 2.6 0.2
v 0.7 2.6 -0.3
v 0.7 2.6 0.2
v -0.4 0.5 -0.3
v 0.7 0.5 -0.3
v -0.5 0.6 -0.3
v -0.4 0.6 -0.3
v 0.7 0.6 -0.3
v 0.8 0.6 -0.3
v -0.6 0.7 -0.3
v -0.5 0.7 -0.3
v 0.8 0.7 -0.3
v 0.9 0.7 -0.3
v -0.7 0.9 -0.3
v -0.6 0.9 -0.3
v 0.9 0.9 -0.3
v 1 0.9 -0.3
v 0.1 2.2 -0.3
v 0.5 2.2 -0.3
v -0.7 2.3 -0.3
v -0.3 2.3 -0.3
v 1.19209e-07 2.3 -0.3
v 0.1 2.3 -0.3
v 0.8 2.3 -0.3
v 1 2.3 -0.3
v -0.3 2.4 -0.3
v -0.2 2.4 -0.3
v -0.0999999 2.4 -0.3
v 1.19209e-07 2.4 -0.3
v 0.7 2.5 -0.3
v 0.8 2.5 -0.3
v -0.2 2.6 -0.3
v -0.0999999 2.6 -0.3
v 0.5 2.6 -0.3
v 0.7 2.6 -0.3
v -1 1.3 -0.1
v -0.7 1.3 -0.1
v 1 1.3 -0.1
v 1.1 1.3 -0.1
v 1.1 1.5 -0.1
v 1.3 1.5 -0.1
v -1 2.2 -0.1
v -0.8 2.2 -0.1
v -0.8 2.3 -0.1
v -0.7 2.3 -0.1
v 1 2.3 -0.1
v 1.1 2.3 -0.1
v 1.3 2.3 -0.1
v -1.2 1.4 0
v -1 1.4 0
v -1.2 2.2 0
v -1 2.2 0
v 1.1 1.5 0
v 1.3 1.5 0
v 1.1 2.3 0
v 1.3 2.3 0
v -1.2 1.4 0.1
v -1 1.4 0.1
v -0.0999999 1.6 0.1
v 0.4 1.6 0.1
v -0.0999999 1.8 0.1
v 0.4 1.8 0.1
v -1.2 2.2 0.1
v -1 2.2 0.1
v -0.4 0.5 0.2
v 0.7 0.5 0.2
v -0.5 0.6 0.2
v -0.4 0.6 0.2
v 0.7 0.6 0.2
v 0.8 0.6 0.2
v -0.6 0.7 0.2
v -0.5 0.7 0.2
v 0.8 0.7 0.2
v 0.9 0.7 0.2
v -0.7 0.9 0.2
v -0.6 0.9 0.2
v 0.9 0.9 0.2
v 1 0.9 0.2
v -0.3 1.1 0.2
v 0.6 1.1 0.2
v -0.3 1.2 0.2
v 0.6 1.2 0.2
v -1 1.3 0.2
v -0.7 1.3 0.2
v 1 1.3 0.2
v 1.1 1.3 0.2
v -0.4 1.6 0.2
v -0.0999999 1.6 0.2
v 0.4 1.6 0.2
v 0.7 1.6 0.2
v -0.4 1.8 0.2
v -0.0999999 1.8 0.2
v 0.4 1.8 0.2
v 0.7 1.8 0.2
v -1 2.2 0.2
v -0.8 2.2 0.2
v 0.1 2.2 0.2
v 0.5 2.2 0.2
v -0.8 2.3 0.2
v -0.3 2.3 0.2
v 1.19209e-07 2.3 0.2
v 0.1 2.3 0.2
v 0.8 2.3 0.2
v 1.1 2.3 0.2
v -0.3 2.4 0.2
v -0.2 2.4 0.2
v -0.0999999 2.4 0.2
v 1.19209e-07 2.4 0.2
v 0.7 2.5 0.2
v 0.8 2.5 0.2
v -0.2 2.6 0.2
v -0.0999999 2.6 0.2
v 0.5 2.6 0.2
v 0.7 2.6 0.2

# faces
f 3/3/1 2/3/1 1/3/1
f 4/3/1 2/3/1 3/3/1
f 7/1/1 6/1/1 5/1/1
f 8/1/1 6/1/1 7/1/1
f 9/1/1 7/1/1 5/1/1
f 11/1/1 9/1/1 5/1/1
f 11/1/1 10/1/1 9/1/1
f 12/1/1 10/1/1 11/1/1
f 15/1/1 14/1/1 13/1/1
f 16/1/1 14/1/1 15/1/1
f 19/1/1 18/1/1 17/1/1
f 20/1/1 18/1/1 19/1/1
f 21/1/1 19/1/1 17/1/1
f 22/1/1 19/1/1 21/1/1
f 25/1/1 24/1/1 23/1/1
f 26/1/1 24/1/1 25/1/1
f 29/1/1 28/1/1 27/1/1
f 30/1/1 28/1/1 29/1/1
f 33/1/1 32/1/1 31/1/1
f 34/1/1 32/1/1 33/1/1
f 37/1/1 36/1/1 35/1/1
f 38/1/1 36/1/1 37/1/1
f 41/1/1 40/1/1 39/1/1
f 42/1/1 40/1/1 41/1/1
f 45/2/1 44/2/1 43/2/1
f 46/2/1 44/2/1 45/2/1
f 49/1/1 48/1/1 47/1/1
f 50/1/1 48/1/1 49/1/1
f 53/2/2 54/2/2 55/2/2
f 55/2/2 54/2/2 56/2/2
f 51/1/2 52/1/2 57/1/2
f 57/1/2 52/1/2 58/1/2
f 59/1/2 60/1/2 61/1/2
f 61/1/2 60/1/2 62/1/2
f 63/1/2 64/1/2 65/1/2
f 65/1/2 64/1/2 66/1/2
f 67/1/2 68/1/2 71/1/2
f 71/1/2 68/1/2 72/1/2
f 69/1/2 70/1/2 73/1/2
f 73/1/2 70/1/2 74/1/2
f 75/1/2 76/1/2 79/1/2
f 79/1/2 76/1/2 80/1/2
f 77/1/2 78/1/2 81/1/2
f 81/1/2 78/1/2 82/1/2
f 83/1/2 84/1/2 85/1/2
f 85/1/2 84/1/2 86/1/2
f 87/1/2 88/1/2 89/1/2
f 89/1/2 88/1/2 90/1/2
f 87/1/2 89/1/2 91/1/2
f 91/1/2 89/1/2 92/1/2
f 93/1/2 94/1/2 95/1/2
f 93/1/2 95/1/2 97/1/2
f 95/1/2 96/1/2 97/1/2
f 97/1/2 96/1/2 98/1/2
f 99/3/2 100/3/2 101/3/2
f 101/3/2 100/3/2 102/3/2
f 105/1/3 104/1/3 103/1/3
f 106/1/3 104/1/3 105/1/3
f 109/1/3 108/1/3 107/1/3
f 110/1/3 108/1/3 109/1/3
f 113/1/3 112/1/3 111/1/3
f 114/1/3 112/1/3 113/1/3
f 117/1/3 116/1/3 115/1/3
f 118/1/3 116/1/3 117/1/3
f 121/1/3 120/1/3 119/1/3
f 122/1/3 120/1/3 121/1/3
f 125/1/3 124/1/3 123/1/3
f 126/1/3 124/1/3 125/1/3
f 129/1/3 128/1/3 127/1/3
f 130/1/3 128/1/3 129/1/3
f 133/1/3 132/1/3 131/1/3
f 134/1/3 132/1/3 133/1/3
f 137/1/3 136/1/3 135/1/3
f 138/1/3 136/1/3 137/1/3
f 141/3/3 140/3/3 139/3/3
f 142/3/3 140/3/3 141/3/3
f 145/3/3 144/3/3 143/3/3
f 146/3/3 144/3/3 145/3/3
f 149/1/3 148/1/3 147/1/3
f 150/1/3 148/1/3 149/1/3
f 151/1/4 152/1/4 153/1/4
f 153/1/4 152/1/4 154/1/4
f 155/3/4 156/3/4 158/3/4
f 158/3/4 156/3/4 159/3/4
f 157/1/4 158/1/4 161/1/4
f 159/1/4 160/1/4 161/1/4
f 158/1/4 159/1/4 161/1/4
f 161/1/4 160/1/4 162/1/4
f 163/1/4 164/1/4 165/1/4
f 165/1/4 164/1/4 166/1/4
f 167/1/4 168/1/4 170/1/4
f 169/1/4 170/1/4 171/1/4
f 170/1/4 168/1/4 172/1/4
f 171/1/4 170/1/4 172/1/4
f 173/1/4 174/1/4 175/1/4
f 175/1/4 174/1/4 176/1/4
f 177/1/4 178/1/4 179/1/4
f 179/1/4 178/1/4 180/1/4
f 180/1/4 178/1/4 181/1/4
f 181/1/4 178/1/4 182/1/4
f 182/1/4 178/1/4 183/1/4
f 181/3/4 182/3/4 184/3/4
f 184/3/4 182/3/4 185/3/4
f 186/1/4 187/1/4 188/1/4
f 188/1/4 187/1/4 189/1/4
f 190/1/4 191/1/4 192/1/4
f 192/1/4 191/1/4 193/1/4
f 194/1/4 195/1/4 196/1/4
f 196/1/4 195/1/4 197/1/4
f 198/1/4 199/1/4 200/1/4
f 200/1/4 199/1/4 201/1/4
f 202/1/4 203/1/4 204/1/4
f 204/1/4 203/1/4 205/1/4
f 209/1/5 207/1/5 206/1/5
f 210/1/5 207/1/5 209/1/5
f 213/1/5 209/1/5 208/1/5
f 213/1/5 211/1/5 210/1/5
f 213/1/5 210/1/5 209/1/5
f 214/1/5 211/1/5 213/1/5
f 217/1/5 213/1/5 212/1/5
f 217/1/5 215/1/5 214/1/5
f 217/1/5 214/1/5 213/1/5
f 218/1/5 215/1/5 217/1/5
f 220/1/5 217/1/5 216/1/5
f 220/1/5 219/1/5 218/1/5
f 220/1/5 218/1/5 217/1/5
f 221/1/5 219/1/5 220/1/5
f 222/1/5 220/1/5 216/1/5
f 223/1/5 220/1/5 222/1/5
f 224/1/5 220/1/5 223/1/5
f 225/1/5 220/1/5 224/1/5
f 226/1/5 219/1/5 221/1/5
f 227/1/5 219/1/5 226/1/5
f 228/1/5 224/1/5 223/1/5
f 229/1/5 224/1/5 228/1/5
f 230/1/5 224/1/5 229/1/5
f 231/1/5 224/1/5 230/1/5
f 232/1/5 226/1/5 221/1/5
f 233/1/5 226/1/5 232/1/5
f 234/1/5 230/1/5 229/1/5
f 235/1/5 230/1/5 234/1/5
f 236/1/5 232/1/5 221/1/5
f 237/1/5 232/1/5 236/1/5
f 242/1/5 241/1/5 240/1/5
f 244/1/5 239/1/5 238/1/5
f 245/1/5 239/1/5 244/1/5
f 246/1/5 239/1/5 245/1/5
f 247/1/5 239/1/5 246/1/5
f 248/1/5 242/1/5 240/1/5
f 249/3/5 243/3/5 242/3/5
f 249/1/5 242/1/5 248/1/5
f 250/3/5 243/3/5 249/3/5
f 253/3/5 252/3/5 251/3/5
f 254/3/5 252/3/5 253/3/5
f 255/3/6 256/3/6 257/3/6
f 257/3/6 256/3/6 258/3/6
f 261/1/6 262/1/6 263/1/6
f 263/1/6 262/1/6 264/1/6
f 259/3/6 260/3/6 265/3/6
f 265/3/6 260/3/6 266/3/6
f 267/1/6 268/1/6 270/1/6
f 270/1/6 268/1/6 271/1/6
f 269/1/6 270/1/6 274/1/6
f 271/1/6 272/1/6 274/1/6
f 270/1/6 271/1/6 274/1/6
f 274/1/6 272/1/6 275/1/6
f 273/1/6 274/1/6 278/1/6
f 275/1/6 276/1/6 278/1/6
f 274/1/6 275/1/6 278/1/6
f 278/1/6 276/1/6 279/1/6
f 277/1/6 278/1/6 281/1/6
f 279/1/6 280/1/6 281/1/6
f 278/1/6 279/1/6 281/1/6
f 281/1/6 280/1/6 282/1/6
f 277/1/6 281/1/6 283/1/6
f 281/3/6 282/3/6 283/3/6
f 282/1/6 280/1/6 284/1/6
f 283/3/6 282/3/6 284/3/6
f 277/1/6 283/1/6 286/1/6
f 283/1/6 284/1/6 286/1/6
f 284/1/6 280/1/6 287/1/6
f 286/1/6 284/1/6 287/1/6
f 285/1/6 286/1/6 289/1/6
f 287/1/6 288/1/6 289/1/6
f 286/1/6 287/1/6 289/1/6
f 289/1/6 288/1/6 290/1/6
f 290/1/6 288/1/6 291/1/6
f 291/1/6 288/1/6 292/1/6
f 285/1/6 289/1/6 293/1/6
f 289/2/6 290/2/6 293/2/6
f 293/2/6 290/2/6 294/2/6
f 291/2/6 292/2/6 295/2/6
f 292/1/6 288/1/6 296/1/6
f 295/2/6 292/2/6 296/2/6
f 294/1/6 295/1/6 297/1/6
f 293/1/6 294/1/6 297/1/6
f 295/1/6 296/1/6 297/1/6
f 285/1/6 293/1/6 297/1/6
f 297/1/6 296/1/6 298/1/6
f 298/1/6 296/1/6 299/1/6
f 299/1/6 296/1/6 300/1/6
f 298/1/6 299/1/6 301/1/6
f 301/1/6 299/1/6 302/1/6
f 302/1/6 299/1/6 303/1/6
f 303/1/6 299/1/6 304/1/6
f 296/1/6 288/1/6 305/1/6
f 300/1/6 296/1/6 305/1/6
f 305/1/6 288/1/6 306/1/6
f 302/1/6 303/1/6 307/1/6
f 307/1/6 303/1/6 308/1/6
f 308/1/6 303/1/6 309/1/6
f 309/1/6 303/1/6 310/1/6
f 300/1/6 305/1/6 311/1/6
f 311/1/6 305/1/6 312/1/6
f 308/1/6 309/1/6 313/1/6
f 313/1/6 309/1/6 314/1/6
f 300/1/6 311/1/6 315/1/6
f 315/1/6 311/1/6 316/1/6
